<svg xmlns="http://www.w3.org/2000/svg" version="1.1" xmlns:xlink="http://www.w3.org/1999/xlink" xmlns:svgjs="http://svgjs.dev/svgjs" width="1500" height="329" viewBox="0 0 1500 329"><g transform="matrix(1,0,0,1,-0.9090909090909918,0.3291423519009413)"><svg viewBox="0 0 396 87" data-background-color="#ffffff" preserveAspectRatio="xMidYMid meet" height="329" width="1500" xmlns="http://www.w3.org/2000/svg" xmlns:xlink="http://www.w3.org/1999/xlink"><g id="tight-bounds" transform="matrix(1,0,0,1,0.2400000000000091,-0.08703764320785012)"><svg viewBox="0 0 395.52 87.17407528641571" height="87.17407528641571" width="395.52"><g><svg viewBox="0 0 395.52 87.17407528641571" height="87.17407528641571" width="395.52"><g><svg viewBox="0 0 395.52 87.17407528641571" height="87.17407528641571" width="395.52"><g><svg viewBox="0 0 395.52 87.17407528641571" height="87.17407528641571" width="395.52"><g id="textblocktransform"><svg viewBox="0 0 395.52 87.17407528641571" height="87.17407528641571" width="395.52" id="textblock"><g><svg viewBox="0 0 395.52 87.17407528641571" height="87.17407528641571" width="395.52"><g transform="matrix(1,0,0,1,0,0)"><svg width="395.52" viewBox="3 -39.65 183.28 40.4" height="87.17407528641571" data-palette-color="#264f0b"><path d="M3-34.55L9.35-34.55 9.35 0 3 0 3-34.55ZM19.1-34.55L25.55-34.55 16.15-18.9 26.3 0 19.3 0 9.6-18.45 19.1-34.55ZM47.55-35.25Q50.55-35.25 52.84-34.2 55.15-33.15 57.09-31.05L57.09-31.05 54.15-27.65Q52.59-29.05 51.12-29.75 49.65-30.45 48-30.45L48-30.45Q46.09-30.45 45-29.28 43.9-28.1 43.9-26.2L43.9-26.2Q43.9-24.3 45.05-23.1 46.2-21.9 49.55-20.6L49.55-20.6Q53.84-18.85 55.87-16.5 57.9-14.15 57.9-9.85L57.9-9.85Q57.9-6.9 56.55-4.48 55.2-2.05 52.67-0.65 50.15 0.75 46.8 0.75L46.8 0.75Q43.34 0.75 40.8-0.48 38.25-1.7 36.15-3.95L36.15-3.95 39.34-7.45Q41.15-5.85 42.8-5 44.45-4.15 46.4-4.15L46.4-4.15Q48.7-4.15 49.97-5.58 51.25-7 51.25-9.45L51.25-9.45Q51.25-11.6 50.12-12.98 49-14.35 45.95-15.5L45.95-15.5Q41.34-17.35 39.32-19.75 37.3-22.15 37.3-25.75L37.3-25.75Q37.3-28.5 38.62-30.65 39.95-32.8 42.3-34.02 44.65-35.25 47.55-35.25L47.55-35.25ZM73.54-27.1Q74.69-27.1 75.59-26.75L75.59-26.75 74.59-20.85Q73.59-21.1 72.74-21.1L72.74-21.1Q70.84-21.1 69.74-19.45 68.64-17.8 68.04-14.55L68.04-14.55 68.04 0 61.89 0 61.89-26.45 67.24-26.45 67.69-21.85Q69.54-27.1 73.54-27.1L73.54-27.1ZM78.44-26.45L84.59-26.45 84.59 0 78.44 0 78.44-26.45ZM81.49-39.65Q83.14-39.65 84.17-38.6 85.19-37.55 85.19-35.9L85.19-35.9Q85.19-34.3 84.17-33.25 83.14-32.2 81.49-32.2L81.49-32.2Q79.84-32.2 78.81-33.25 77.79-34.3 77.79-35.9L77.79-35.9Q77.79-37.55 78.81-38.6 79.84-39.65 81.49-39.65L81.49-39.65ZM102.64-27.15Q105.49-27.15 107.14-25.1 108.79-23.05 108.79-19.6L108.79-19.6 108.79 0 102.64 0 102.64-18.9Q102.64-20.8 102.11-21.63 101.59-22.45 100.59-22.45L100.59-22.45Q98.49-22.45 96.44-18.5L96.44-18.5 96.44 0 90.29 0 90.29-26.45 95.64-26.45 96.09-23Q97.44-25.1 98.96-26.13 100.49-27.15 102.64-27.15L102.64-27.15ZM114.33-26.45L120.48-26.45 120.48 0 114.33 0 114.33-26.45ZM117.39-39.65Q119.03-39.65 120.06-38.6 121.09-37.55 121.09-35.9L121.09-35.9Q121.09-34.3 120.06-33.25 119.03-32.2 117.39-32.2L117.39-32.2Q115.73-32.2 114.71-33.25 113.69-34.3 113.69-35.9L113.69-35.9Q113.69-37.55 114.71-38.6 115.73-39.65 117.39-39.65L117.39-39.65ZM138.58-26.45L144.63-26.45 137.73 0 130.48 0 123.38-26.45 129.73-26.45 134.08-4.95 138.58-26.45ZM164.43-6.4Q164.43-5.1 164.78-4.48 165.13-3.85 165.93-3.45L165.93-3.45 164.68 0.65Q162.63 0.4 161.41-0.45 160.18-1.3 159.58-3.05L159.58-3.05Q157.28 0.75 153.13 0.75L153.13 0.75Q149.83 0.75 147.88-1.48 145.93-3.7 145.93-7.4L145.93-7.4Q145.93-11.7 148.61-13.95 151.28-16.2 156.38-16.2L156.38-16.2 158.43-16.2 158.43-18.05Q158.43-20.55 157.56-21.58 156.68-22.6 154.73-22.6L154.73-22.6Q152.38-22.6 148.88-21.3L148.88-21.3 147.48-25.3Q149.48-26.2 151.63-26.68 153.78-27.15 155.73-27.15L155.73-27.15Q164.43-27.15 164.43-18.35L164.43-18.35 164.43-6.4ZM154.78-3.7Q157.18-3.7 158.43-7L158.43-7 158.43-12.55 156.98-12.55Q154.43-12.55 153.25-11.4 152.08-10.25 152.08-7.85L152.08-7.85Q152.08-5.8 152.78-4.75 153.48-3.7 154.78-3.7L154.78-3.7ZM177.58-27.15Q182.28-27.15 185.53-24.05L185.53-24.05 183.18-20.7Q181.78-21.7 180.53-22.2 179.28-22.7 177.98-22.7L177.98-22.7Q176.53-22.7 175.7-21.93 174.88-21.15 174.88-19.8L174.88-19.8Q174.88-18.45 175.8-17.63 176.73-16.8 179.53-15.7L179.53-15.7Q182.98-14.35 184.63-12.5 186.28-10.65 186.28-7.55L186.28-7.55Q186.28-3.7 183.58-1.48 180.88 0.75 176.73 0.75L176.73 0.75Q174.03 0.75 171.75-0.23 169.48-1.2 167.78-2.95L167.78-2.95 170.78-6.25Q173.58-3.8 176.48-3.8L176.48-3.8Q178.13-3.8 179.08-4.67 180.03-5.55 180.03-7.1L180.03-7.1Q180.03-8.25 179.63-8.97 179.23-9.7 178.23-10.33 177.23-10.95 175.23-11.7L175.23-11.7Q171.78-13.05 170.3-14.85 168.83-16.65 168.83-19.45L168.83-19.45Q168.83-22.8 171.2-24.98 173.58-27.15 177.58-27.15L177.58-27.15Z" opacity="1" transform="matrix(1,0,0,1,0,0)" fill="#264f0b" class="wordmark-text-0" data-fill-palette-color="primary" id="text-0"></path></svg></g></svg></g></svg></g></svg></g><g></g></svg></g></svg></g><defs></defs></svg><rect width="395.52" height="87.17407528641571" fill="none" stroke="none" visibility="hidden"></rect></g></svg></g></svg>